<svg xmlns="http://www.w3.org/2000/svg" version="1.1" xmlns:xlink="http://www.w3.org/1999/xlink" xmlns:svgjs="http://svgjs.dev/svgjs" viewBox="0 0 12.31125141556599 1.84076559972396"><g transform="matrix(1,0,0,1,0.36031887493911885,0.38638279986198)"><rect width="12.31125141556599" height="12.31125141556599" x="-0.36031887493911885" y="-5.621625707782995" fill="#ffffff"></rect><g><path d=" M 0.18 0.018000000000000016 L 0.18 1.068 L 0.858 1.068 L 0.858 0.9855 L 0.3165 0.9855 L 0.3165 0.546 L 0.7815 0.546 L 0.7815 0.4770000000000001 L 0.3165 0.4770000000000001 L 0.3165 0.10050000000000003 L 0.858 0.10050000000000003 L 0.858 0.018000000000000016 L 0.18 0.018000000000000016 M 1.663484619140625 0.7590000000000001 L 1.807484619140625 1.068 L 1.9529846191406248 1.068 L 1.463984619140625 0.018000000000000016 L 1.388984619140625 0.018000000000000016 L 0.944984619140625 1.068 L 1.013984619140625 1.068 L 1.1459846191406249 0.7590000000000001 L 1.663484619140625 0.7590000000000001 M 1.631984619140625 0.6915 L 1.174484619140625 0.6915 L 1.390484619140625 0.18600000000000005 L 1.396484619140625 0.18600000000000005 L 1.631984619140625 0.6915 M 2.0504765624999997 0.8025 Q 2.0534765624999998 0.867 2.0842265624999996 0.9195000000000001 Q 2.1149765625 0.9720000000000001 2.1682265624999997 1.00875 Q 2.2214765625 1.0455 2.2934765624999995 1.06575 Q 2.3654765624999996 1.086 2.4509765624999997 1.086 Q 2.5379765625 1.086 2.6077265625 1.0650000000000002 Q 2.6774765625 1.044 2.7269765625 1.0050000000000001 Q 2.7764765624999996 0.9660000000000001 2.8034765624999998 0.9105000000000001 Q 2.8304765625 0.8550000000000001 2.8304765625 0.7875000000000001 Q 2.8304765625 0.6945000000000001 2.7839765625 0.6352500000000001 Q 2.7374765625 0.5760000000000001 2.6677265624999995 0.53625 Q 2.5979765624999995 0.49650000000000005 2.5162265625 0.46950000000000003 Q 2.4344765624999996 0.4425 2.3647265624999996 0.4125000000000001 Q 2.2949765624999996 0.38250000000000006 2.2484765624999996 0.3435 Q 2.2019765624999996 0.3045 2.2019765624999996 0.24 Q 2.2019765624999996 0.20400000000000007 2.2177265624999998 0.1725 Q 2.2334765625 0.14100000000000001 2.2642265624999998 0.11775000000000002 Q 2.2949765624999996 0.09450000000000003 2.3399765625 0.08025000000000004 Q 2.3849765625 0.06600000000000006 2.4434765625 0.06600000000000006 Q 2.5409765625 0.06600000000000006 2.6092265625 0.10725000000000007 Q 2.6774765625 0.14850000000000008 2.6894765625 0.237 L 2.7914765624999998 0.237 Q 2.7824765625 0.1815 2.7509765625 0.1372500000000001 Q 2.7194765624999997 0.09300000000000008 2.6714765624999997 0.06225000000000014 Q 2.6234765624999996 0.031500000000000083 2.5627265625 0.01574999999999993 Q 2.5019765625 0 2.4359765624999996 0 Q 2.3669765624999997 0 2.3047265625 0.018000000000000016 Q 2.2424765625 0.03600000000000003 2.1952265625 0.07050000000000001 Q 2.1479765625 0.1050000000000001 2.1202265624999996 0.15750000000000008 Q 2.0924765625 0.21000000000000008 2.0924765625 0.2775000000000001 Q 2.0924765625 0.366 2.1374765625 0.42000000000000004 Q 2.1824765624999998 0.4740000000000001 2.2507265624999997 0.51 Q 2.3189765624999996 0.546 2.3984765625 0.5715000000000001 Q 2.4779765625 0.597 2.5462265625 0.6292500000000001 Q 2.6144765624999997 0.6615 2.6594765624999996 0.7080000000000001 Q 2.7044765625 0.7545000000000001 2.7044765625 0.8325 Q 2.7044765625 0.93 2.6332265625 0.9750000000000001 Q 2.5619765625 1.02 2.4434765625 1.02 Q 2.3489765625 1.02 2.2919765625 0.9952500000000001 Q 2.2349765625 0.9705 2.2049765624999997 0.936 Q 2.1749765625 0.9015000000000001 2.1644765625 0.86475 Q 2.1539765624999996 0.8280000000000001 2.1524765625 0.8025 L 2.0504765624999997 0.8025 M 2.9744765624999996 0.018000000000000016 L 3.3374765624999996 0.6705000000000001 L 3.3374765624999996 1.068 L 3.4739765625 1.068 L 3.4739765625 0.657 L 3.8429765624999996 0.018000000000000016 L 3.7619765624999997 0.018000000000000016 L 3.4409765624999995 0.5715000000000001 L 3.4349765624999997 0.5715000000000001 L 3.1289765624999997 0.018000000000000016 L 2.9744765624999996 0.018000000000000016 M 4.004942138671875 0.018000000000000016 L 4.004942138671875 0.663 Q 4.004942138671875 0.7245 4.016942138671874 0.7987500000000001 Q 4.028942138671875 0.873 4.073942138671875 0.9367500000000001 Q 4.1189421386718745 1.0005000000000002 4.207442138671874 1.04325 Q 4.295942138671874 1.086 4.448942138671875 1.086 Q 4.544942138671875 1.086 4.619192138671875 1.056 Q 4.693442138671875 1.026 4.743692138671874 0.9735 Q 4.793942138671874 0.921 4.819442138671874 0.8512500000000001 Q 4.8449421386718745 0.7815000000000001 4.8449421386718745 0.7020000000000001 L 4.8449421386718745 0.018000000000000016 L 4.778942138671875 0.018000000000000016 L 4.778942138671875 0.6525000000000001 Q 4.778942138671875 0.6855 4.777442138671875 0.7192500000000001 Q 4.775942138671875 0.7530000000000001 4.768442138671874 0.7867500000000001 Q 4.760942138671875 0.8205 4.745192138671874 0.8535 Q 4.729442138671875 0.8865000000000001 4.699442138671874 0.9195000000000001 Q 4.645442138671875 0.9780000000000001 4.577942138671874 0.9990000000000001 Q 4.510442138671874 1.02 4.436942138671874 1.02 Q 4.373942138671874 1.02 4.325192138671874 1.0005000000000002 Q 4.276442138671874 0.9810000000000001 4.232942138671874 0.9420000000000001 Q 4.198442138671875 0.912 4.180442138671874 0.8820000000000001 Q 4.162442138671874 0.8520000000000001 4.153442138671875 0.8227500000000001 Q 4.144442138671875 0.7935000000000001 4.1429421386718746 0.7635000000000001 Q 4.1414421386718745 0.7335 4.1414421386718745 0.7035 L 4.1414421386718745 0.018000000000000016 L 4.004942138671875 0.018000000000000016 M 5.530398193359375 1.068 L 5.530398193359375 0.10050000000000003 L 5.932398193359375 0.10050000000000003 L 5.932398193359375 0.018000000000000016 L 4.991898193359375 0.018000000000000016 L 4.991898193359375 0.10050000000000003 L 5.393898193359375 0.10050000000000003 L 5.393898193359375 1.068 L 5.530398193359375 1.068 M 6.1993864746093745 0.018000000000000016 L 6.1993864746093745 1.068 L 6.335886474609374 1.068 L 6.335886474609374 0.018000000000000016 L 6.1993864746093745 0.018000000000000016 M 6.752902587890624 1.068 L 6.752902587890624 0.018000000000000016 L 6.889402587890624 0.018000000000000016 L 6.889402587890624 0.9855 L 7.430902587890624 0.9855 L 7.430902587890624 1.068 L 6.752902587890624 1.068 M 7.712887207031249 0.018000000000000016 L 7.712887207031249 1.068 L 7.849387207031249 1.068 L 7.849387207031249 0.018000000000000016 L 7.712887207031249 0.018000000000000016 M 8.6549033203125 1.068 L 8.6549033203125 0.10050000000000003 L 9.056903320312498 0.10050000000000003 L 9.056903320312498 0.018000000000000016 L 8.116403320312498 0.018000000000000016 L 8.116403320312498 0.10050000000000003 L 8.5184033203125 0.10050000000000003 L 8.5184033203125 1.068 L 8.6549033203125 1.068 M 9.128891601562499 0.018000000000000016 L 9.491891601562498 0.6705000000000001 L 9.491891601562498 1.068 L 9.628391601562498 1.068 L 9.628391601562498 0.657 L 9.997391601562498 0.018000000000000016 L 9.916391601562498 0.018000000000000016 L 9.595391601562499 0.5715000000000001 L 9.589391601562498 0.5715000000000001 L 9.2833916015625 0.018000000000000016 L 9.128891601562499 0.018000000000000016" fill="#173054" fill-rule="nonzero"></path></g><g></g><g clip-path="url(#SvgjsClipPath1002)"><g clip-path="url(#SvgjsClipPath1000379d1f06-901f-472f-bd34-12b99cda8792)"><path d=" M 11.522664960803805 1.0260905024307336 C 11.613253067735194 0.9354913598734813 11.613253067735194 0.7886128316287108 11.522664960803805 0.6980136890714586 L 11.358638912928257 0.5339876411959107 L 11.194588147444533 0.6980136890714587 C 11.10400004051314 0.788612831628711 11.10400004051314 0.9354913598734818 11.194588147444533 1.026090502430734 C 11.23808924512275 1.069604845441148 11.297097345232473 1.0940520625580312 11.358626554124168 1.0940520625580312 C 11.420155763015861 1.0940520625580312 11.479163863125587 1.0696048454411478 11.522664960803805 1.0260905024307336 Z" fill="#173054" transform="matrix(1,0,0,1,0,0)" fill-rule="evenodd"></path></g><g clip-path="url(#SvgjsClipPath1000379d1f06-901f-472f-bd34-12b99cda8792)"><path d=" M 10.8383826959776 1.0260905024307336 C 10.92897080290899 0.9354913598734813 10.92897080290899 0.7886128316287108 10.8383826959776 0.6980136890714586 L 10.674331930493876 0.5339876411959107 L 10.510305882618328 0.6980136890714587 C 10.419717775686939 0.788612831628711 10.419717775686939 0.9354913598734818 10.510305882618328 1.026090502430734 C 10.553806980296544 1.069604845441148 10.612815080406271 1.0940520625580312 10.674344289297963 1.0940520625580312 C 10.73587349818966 1.0940520625580312 10.794881598299385 1.0696048454411478 10.8383826959776 1.0260905024307336 Z" fill="#173054" transform="matrix(1,0,0,1,0,0)" fill-rule="evenodd"></path></g><g clip-path="url(#SvgjsClipPath1000379d1f06-901f-472f-bd34-12b99cda8792)"><path d=" M 10.674331930493876 0.5339876411959107 L 10.510305882618328 0.3699368757121836 C 10.419720603552763 0.27934621453488806 10.419720603552763 0.13247544113838272 10.510305882618328 0.04188477996108739 C 10.553756602858765 -0.0016957686748655595 10.612791523670298 -0.026151313778979286 10.674331930493876 -0.026063924922860915 L 11.358614195320078 -0.026063924922860915 C 11.420154602143656 -0.026151313778979286 11.479189522955185 -0.0016957686748655595 11.522640243195623 0.04188477996108739 C 11.613225522261189 0.13247544113838272 11.613225522261189 0.27934621453488845 11.522640243195623 0.369936875712184 L 11.358614195320078 0.5339876411959107 L 11.016473062906977 0.19184650878280998 Z" fill="#225777" transform="matrix(1,0,0,1,0,0)" fill-rule="evenodd"></path></g></g></g><defs><clipPath id="SvgjsClipPath1002"><path d=" M 10.442357177734378 -0.026063924922860915 h 1.1482564879533732 v 1.120127849845722 h -1.1482564879533732 Z"></path></clipPath><clipPath id="SvgjsClipPath1000379d1f06-901f-472f-bd34-12b99cda8792"><path d=" M 10.442357177734378 -0.026063924922860915 L 11.590613665687751 -0.026063924922860915 L 11.590613665687751 1.094063924922861 L 10.442357177734378 1.094063924922861 Z"></path></clipPath></defs></svg>